<svg xmlns="http://www.w3.org/2000/svg" xmlns:xlink="http://www.w3.org/1999/xlink" width="170" height="119" viewBox="0 0 170 119"><defs><linearGradient id="a" y1="0.68" x2="1" y2="0.678" gradientUnits="objectBoundingBox"><stop offset="0" stop-color="#7ebdff"/><stop offset="1" stop-color="#7edcff"/></linearGradient></defs><path d="M83.008,68.258a3.19,3.19,0,0,0-4.516,0L52.381,94.369a3.19,3.19,0,0,0,0,4.516L53.9,100.4a3.19,3.19,0,0,0,4.516,0L76.527,82.283v40.03a3.2,3.2,0,0,0,3.188,3.188h2.125a3.2,3.2,0,0,0,3.188-3.187V82.283L103.142,100.4a3.19,3.19,0,0,0,4.516,0l1.514-1.514a3.19,3.19,0,0,0,0-4.516Zm68.85,18.673A29.765,29.765,0,0,0,123.25,49a29.426,29.426,0,0,0-12.75,2.869A46.746,46.746,0,0,0,25.553,76.678,38.245,38.245,0,0,0,38.25,151H136a34,34,0,0,0,15.858-64.069ZM136,142.5H38.25a29.751,29.751,0,0,1-3.984-59.234A36.474,36.474,0,0,1,34,78.75,38.261,38.261,0,0,1,107.684,64.3a21.246,21.246,0,0,1,32.327,27.519A25.5,25.5,0,0,1,136,142.5Z" transform="translate(0 -32)" fill="url(#a)"/></svg>